# xmcd
#
# Track frame offsets: 
#        150
#        11817
#        23930
#        33350
#        43880
#        55752
#        67295
#        78890
#        91305
#        103527
#        111802
#        125932
#        139617
#        157305
#        169197
#        182360
#        192430
#        203562
#        216492
#        226250
#        237277
#        247147
#        262707
#        275975
#        286182
#        296795
#        309185
#        323920
#        334187
#
# Disc length: 4616 seconds
#
# Revision: 1
# Processed by: cddbd v1.5.2PL0 Copyright (c) Steve Scherf et al.
# Submitted via: ExactAudioCopy v1.3
#
DISCID=b712061d
DTITLE=Frankie Lane - On The Trail Again
DYEAR=1992
DGENRE=
TTITLE0=Strange Lady In Town [Ned Washington And Dimitri Tiomkin] [195
TTITLE0=5]
TTITLE1=Ramblin' Man [1952]
TTITLE2=Rawhide [Ned Washington And Dimitri Tiomkin] [1958]
TTITLE3=Champion The Wonderhorse [1955]
TTITLE4=Blowing Wild (Ballad Of Black Gold) [PF Webster And Dimitri Ti
TTITLE4=omkin] [1953]
TTITLE5=Where The Wind Blows [1953]
TTITLE6=I Let Her Go [1953]
TTITLE7=The Tarrier Song [1955]
TTITLE8=El Diablo [Harpsichord and Xylophone Version] [Stan Jones] [1956
TTITLE8=]
TTITLE9=Ride Through The Night [1961]
TTITLE10=Ghostriders In The Sky [Stan Jones] [1962]
TTITLE11=Beyond The Blue Horizon [1962]
TTITLE12=The Swamp Girl [1962]
TTITLE13=Song Of The Open Road [1962]
TTITLE14=Journey's End [1958]
TTITLE15=Wagon Wheels [1962]
TTITLE16=The 3 10 To Yuma [1960]
TTITLE17=Cool Water [1960]
TTITLE18=Gunfight At O.K. Corral [Ned Washington And Dimitri Tiomkin] 
TTITLE18=[1960]
TTITLE19=High Noon [Ned Washington And Dimitri Tiomkin] [1960]
TTITLE20=The New Frontier [1962]
TTITLE21=Deuces Wild [1961]
TTITLE22=Moonlight Gambler [1956]
TTITLE23=Wheel Of Fortune [1961]
TTITLE24=Dead Man's Hand [1961]
TTITLE25=The Hard Way [1961]
TTITLE26=The Wayfaring Stranger [1962]
TTITLE27=The Roving Gambler [1961]
TTITLE28=El Diablo [Harpsichord Versioin] [Stan Jones] [1956]
EXTD=
EXTT0=
EXTT1=
EXTT2=
EXTT3=
EXTT4=
EXTT5=
EXTT6=
EXTT7=
EXTT8=
EXTT9=
EXTT10=
EXTT11=
EXTT12=
EXTT13=
EXTT14=
EXTT15=
EXTT16=
EXTT17=
EXTT18=
EXTT19=
EXTT20=
EXTT21=
EXTT22=
EXTT23=
EXTT24=
EXTT25=
EXTT26=
EXTT27=
EXTT28=
PLAYORDER=
